<?xml version="1.0" standalone="no"?>
<!DOCTYPE svg PUBLIC "-//W3C//DTD SVG 20010904//EN"
 "http://www.w3.org/TR/2001/REC-SVG-20010904/DTD/svg10.dtd">
<svg version="1.0" xmlns="http://www.w3.org/2000/svg"
 width="325.000000pt" height="300.000000pt" viewBox="0 0 325.000000 300.000000"
 preserveAspectRatio="xMidYMid meet">
<metadata>
Created by potrace 1.15, written by Peter Selinger 2001-2017
</metadata>
<g transform="translate(0.000000,300.000000) scale(0.100000,-0.100000)"
fill="#000000" stroke="none">
<path d="M0 1500 l0 -1500 1625 0 1625 0 0 1500 0 1500 -1625 0 -1625 0 0
-1500z m355 1230 c28 -5 67 -13 88 -16 20 -4 37 -10 37 -14 0 -5 19 -10 43
-13 23 -3 62 -10 87 -17 25 -6 65 -15 90 -19 25 -5 68 -15 95 -24 28 -8 77
-20 110 -27 33 -7 64 -17 69 -22 6 -4 23 -8 39 -8 16 0 57 -9 91 -19 80 -25
183 -52 224 -58 18 -3 35 -9 38 -14 3 -5 15 -9 28 -9 30 0 124 -47 159 -79 16
-14 36 -41 44 -59 9 -19 23 -36 30 -39 15 -6 52 27 72 66 16 29 104 84 161
100 25 7 55 17 68 22 13 5 33 9 45 9 13 0 27 4 33 8 5 5 34 14 64 21 30 6 73
17 95 22 22 6 56 14 75 19 19 5 62 16 95 26 33 9 80 19 105 21 25 3 47 8 50
12 7 9 95 31 125 31 13 0 26 4 29 9 3 5 23 11 43 15 21 3 56 8 78 11 22 4 49
10 60 15 24 10 66 20 120 27 22 3 43 10 46 16 4 5 15 7 24 3 14 -5 16 -16 11
-79 -26 -323 -24 -306 -55 -447 -19 -90 -29 -119 -62 -185 -20 -39 -45 -73
-61 -83 -16 -9 -28 -22 -28 -29 0 -7 -11 -13 -26 -13 -14 0 -23 -4 -19 -10 4
-6 -6 -10 -24 -10 -16 0 -32 -4 -35 -9 -3 -5 -23 -11 -43 -14 -21 -3 -58 -10
-83 -17 -25 -6 -63 -15 -85 -20 -22 -5 -58 -14 -80 -20 -22 -6 -58 -15 -80
-20 -22 -6 -58 -15 -80 -20 -22 -6 -58 -15 -80 -20 -22 -6 -58 -15 -80 -21
-22 -6 -53 -13 -70 -16 -16 -2 -39 -8 -50 -13 -11 -5 -33 -11 -50 -15 -16 -3
-47 -10 -67 -15 -21 -6 -56 -14 -79 -19 -22 -5 -45 -13 -50 -18 -6 -6 -8 -292
-7 -726 2 -394 -1 -717 -5 -717 -4 0 -26 9 -47 20 -48 25 -109 104 -110 143 0
15 -4 27 -10 27 -7 0 -10 214 -10 623 0 342 -4 627 -8 633 -7 11 -20 15 -107
34 -22 5 -58 14 -80 20 -22 6 -58 15 -80 20 -22 5 -58 14 -80 20 -22 6 -58 15
-80 20 -22 5 -58 14 -80 20 -22 6 -58 15 -80 20 -22 5 -58 14 -80 20 -22 6
-58 15 -80 20 -22 5 -60 14 -85 20 -25 6 -62 13 -83 17 -21 3 -40 10 -43 14
-3 5 -18 9 -35 9 -53 0 -147 69 -169 124 -7 20 -17 36 -22 36 -4 0 -8 11 -8
25 0 14 -4 25 -10 25 -5 0 -10 10 -10 23 0 13 -4 27 -9 33 -25 27 -59 263 -67
473 l-5 123 28 -5 c15 -4 51 -11 78 -17z"/>
<path d="M395 2580 c-8 -12 -8 -167 0 -179 2 -5 9 -40 15 -77 11 -82 47 -203
66 -225 8 -8 14 -21 14 -27 0 -17 61 -59 95 -65 17 -3 50 -11 75 -17 25 -6 62
-14 83 -17 20 -3 37 -9 37 -13 0 -4 19 -10 43 -13 23 -3 60 -10 82 -15 98 -25
173 -43 205 -52 19 -5 58 -14 85 -20 28 -7 59 -16 70 -20 11 -5 34 -11 50 -14
59 -10 112 -23 125 -31 7 -4 31 -8 54 -9 33 -1 41 3 45 19 2 11 10 24 18 30
12 9 14 27 9 91 -12 152 -18 199 -27 208 -5 6 -9 20 -9 31 0 53 -76 165 -111
165 -10 0 -20 4 -23 9 -3 5 -18 11 -33 14 -16 3 -44 10 -63 15 -108 31 -199
56 -230 62 -19 5 -64 16 -100 25 -36 9 -85 21 -110 26 -25 6 -62 14 -82 20
-101 25 -121 30 -155 39 -21 5 -63 14 -93 21 -30 6 -65 15 -78 20 -30 12 -49
11 -57 -1z"/>
<path d="M2815 2570 c-43 -8 -114 -25 -180 -41 -41 -10 -97 -23 -150 -34 -16
-4 -39 -10 -50 -15 -11 -4 -45 -13 -75 -19 -57 -12 -93 -21 -245 -62 -148 -39
-184 -49 -213 -60 -13 -5 -31 -9 -42 -9 -27 0 -82 -70 -107 -137 -21 -57 -26
-86 -41 -208 -8 -62 -2 -209 9 -219 3 -4 19 -2 35 4 16 7 49 16 74 21 25 6 61
14 80 19 48 11 157 39 203 50 20 6 54 14 75 19 120 30 202 51 238 62 17 5 45
9 62 9 18 0 32 4 32 9 0 5 17 11 38 14 20 3 53 10 72 15 19 6 53 15 75 21 68
17 110 88 144 241 28 127 34 172 35 255 1 77 0 78 -69 65z"/>
</g>
</svg>
